<svg xmlns="http://www.w3.org/2000/svg" viewBox="0 0 458.276 471.89"><defs><style>.cls-4{fill:none;stroke-miterlimit:22.926;stroke:#d9e5ef;stroke-width:5.102px}</style><clipPath id="clip-Artboard_1"><path d="M0 0h458.276v471.89H0z"/></clipPath></defs><g id="Artboard_1" data-name="Artboard 1" clip-path="url(#clip-Artboard_1)"><path fill="#fff" d="M0 0h458.276v471.89H0z"/><path id="Rectangle_1" data-name="Rectangle 1" stroke-width="10" stroke-miterlimit="22.926" stroke="#b478ac" fill="none" d="M6.103 235.644L228.789 12.958l222.687 222.686L228.789 458.33z"/><g id="Group_1" data-name="Group 1" transform="translate(-76 -179.427)"><path id="Line_1" data-name="Line 1" stroke-linejoin="bevel" stroke-linecap="round" stroke="#d9e5ef" stroke-width="5.102" fill="none" d="M260.286 342.581h67.075"/><path id="Line_2" data-name="Line 2" class="cls-4" transform="translate(279.568 342.581)" d="M0 0v145.13"/><path id="Line_3" data-name="Line 3" class="cls-4" transform="translate(315.8 342.581)" d="M0 0v145.13"/><path id="Path_1" data-name="Path 1" d="M380 466.335v21.375H260.286" stroke-linejoin="round" fill-rule="evenodd" stroke-linecap="round" stroke="#d9e5ef" stroke-width="5.102" fill="none"/></g><path id="Union_1" data-name="Union 1" d="M216.133 404.664l12.938-12.938 12.938 12.938-12.937 12.938zm0-336.659l12.938-12.941 12.937 12.938-12.937 12.938z" fill="#b478ac" stroke-width=".009" stroke-miterlimit="22.926" stroke="#b478ac"/><text id="L_I_M_E_R_A_N_C_E" data-name="L I M E R A N C E" transform="translate(63 249)" fill="#0e639f" font-size="38" font-family="Montserrat-Black,Montserrat" font-weight="800" opacity=".81"><tspan x="0" y="0">L I M E R A N C E</tspan></text><text id="REVEAL_THE_SOUL" data-name="REVEAL THE SOUL" transform="translate(152 278)" fill="#004388" font-size="16" font-family="Montserrat-SemiBold,Montserrat" font-weight="600"><tspan x="0" y="0">REVEAL THE SOUL</tspan></text></g></svg>